<?xml version="1.0" encoding="UTF-8"?>
<svg width="72px" height="72px" viewBox="0 0 72 72" version="1.1" xmlns="http://www.w3.org/2000/svg" xmlns:xlink="http://www.w3.org/1999/xlink">
    <!-- Generator: Sketch 52.2 (67145) - http://www.bohemiancoding.com/sketch -->
    <title>icon/ai_rounded</title>
    <desc>Created with Sketch.</desc>
    <g id="Page-1" stroke="none" stroke-width="1" fill="none" fill-rule="evenodd">
        <g id="D-00.00-Home" transform="translate(-329.000000, -2572.000000)" fill="#004E85" fill-rule="nonzero">
            <g id="Section-4" transform="translate(200.000000, 2011.000000)">
                <g id="Element/Card_Button" transform="translate(0.000000, 521.000000)">
                    <g id="icon/ai" transform="translate(129.000000, 40.000000)">
                        <path d="M39.7728589,0 C35.5765399,0 31.6010798,0.942331288 28.0526135,2.6208589 C18.6734724,6.9791411 12.1802209,16.4613497 12.1802209,27.4748466 L12.1802209,31.1411043 L12.1802209,32.0245399 L6.58512883,42.6993865 C5.1716319,45.393865 6.5115092,47.602454 9.54463804,47.602454 L12.1802209,47.602454 L12.1802209,47.6613497 L12.1802209,52.3141104 L12.1802209,57.7472393 C12.1802209,60.9128834 14.7716319,63.5190184 17.952,63.5190184 L25.8734724,62.3411043 L25.8881963,70.2625767 L25.8881963,70.3214724 C25.9323681,71.3374233 26.7863558,72.0147239 27.8464785,71.8233129 L56.3814479,66.7730061 C57.4562945,66.5815951 58.3397301,65.5361963 58.3397301,64.4466258 L58.3397301,63.195092 L58.3397301,62.193865 L58.3397301,47.6760736 C63.8023067,42.6552147 67.2329816,35.4552147 67.2329816,27.4453988 C67.2182577,12.2797546 54.9237791,0 39.7728589,0 Z M52.7747592,28.764 L56.6793053,31.734 C57.0308995,32.004 57.1234243,32.49 56.9013648,32.886 L53.2003732,39.114 C52.9783137,39.51 52.4971848,39.672 52.0715708,39.51 L47.4638362,37.71 C46.5015784,38.412 45.4653008,39.024 44.3364983,39.474 L43.6333099,44.244 C43.577795,44.676 43.1891909,45 42.726567,45 L35.3245838,45 C34.8619598,45 34.4733557,44.676 34.4178408,44.244 L33.7146524,39.474 C32.58585,39.024 31.5495723,38.43 30.5873145,37.71 L25.97958,39.51 C25.5724709,39.654 25.072837,39.51 24.8507775,39.114 L21.1497859,32.886 C20.9277265,32.49 21.0202512,32.004 21.3718454,31.734 L25.2763916,28.764 C25.2023718,28.188 25.1468569,27.594 25.1468569,27 C25.1468569,26.406 25.2023718,25.812 25.2763916,25.236 L21.3718454,22.266 C21.0202512,21.996 20.9092215,21.51 21.1497859,21.114 L24.8507775,14.886 C25.072837,14.49 25.553966,14.328 25.97958,14.49 L30.5873145,16.29 C31.5495723,15.588 32.58585,14.976 33.7146524,14.526 L34.4178408,9.756 C34.4733557,9.324 34.8619598,9 35.3245838,9 L42.726567,9 C43.1891909,9 43.577795,9.324 43.6333099,9.756 L44.3364983,14.526 C45.4653008,14.976 46.5015784,15.57 47.4638362,16.29 L52.0715708,14.49 C52.4786798,14.346 52.9783137,14.49 53.2003732,14.886 L56.9013648,21.114 C57.1234243,21.51 57.0308995,21.996 56.6793053,22.266 L52.7747592,25.236 C52.848779,25.812 52.9042939,26.388 52.9042939,27 C52.9042939,27.612 52.848779,28.188 52.7747592,28.764 Z M39.0214881,33 C42.3300595,33 45.0214881,30.3085714 45.0214881,27 C45.0214881,23.6914286 42.3300595,21 39.0214881,21 C35.7129167,21 33.0214881,23.6914286 33.0214881,27 C33.0214881,30.3085714 35.7129167,33 39.0214881,33 Z" id="Shape"></path>
                    </g>
                </g>
            </g>
        </g>
    </g>
</svg>