<?xml version="1.0" encoding="UTF-8"?>
<svg width="64px" height="64px" viewBox="0 0 64 64" version="1.1" xmlns="http://www.w3.org/2000/svg" xmlns:xlink="http://www.w3.org/1999/xlink">
    <!-- Generator: Sketch 52.2 (67145) - http://www.bohemiancoding.com/sketch -->
    <title>icon/bitcoin_rounded</title>
    <desc>Created with Sketch.</desc>
    <g id="Page-1" stroke="none" stroke-width="1" fill="none" fill-rule="evenodd">
        <g id="D-00.00-Home" transform="translate(-377.000000, -1615.000000)" fill="#004E85" fill-rule="nonzero">
            <g id="Section-3" transform="translate(0.000000, 1127.000000)">
                <g id="Element-/-Reasons" transform="translate(377.000000, 488.000000)">
                    <g id="icon/bitcoin">
                        <path d="M21.3333333,10.6666667 L18.6666667,10.6666667 C17.1939073,10.6666667 16,11.860574 16,13.3333333 C16,14.8060927 17.1939073,16 18.6666667,16 L21.3333333,16 L21.3333333,48 L19.4154038,48 C18.1917567,48 17.1251351,48.832793 16.8283571,50.019905 L16.4141785,51.6766192 C16.3877383,51.78238 16.3743685,51.8909843 16.3743685,52 C16.3743685,52.7363797 16.9713222,53.3333333 17.7077019,53.3333333 L21.3333333,53.3333333 L21.3333333,56 C21.3333333,57.4727593 22.5272407,58.6666667 24,58.6666667 C25.4727593,58.6666667 26.6666667,57.4727593 26.6666667,56 L26.6666667,53.3333333 L32,53.3333333 L32,56 C32,57.4727593 33.1939073,58.6666667 34.6666667,58.6666667 C36.139426,58.6666667 37.3333333,57.4727593 37.3333333,56 L37.3333333,53.3333333 C44,53.3333333 49.3333333,48 49.3333333,41.3333333 C49.3333333,37.2533333 47.28,33.6266667 44.16,31.4666667 C46.5333333,29.3333333 48,26.1333333 48,22.6666667 C48,16.48 43.3333333,11.4133333 37.3333333,10.7466667 L37.3333333,8 C37.3333333,6.52724067 36.139426,5.33333333 34.6666667,5.33333333 C33.1939073,5.33333333 32,6.52724067 32,8 L32,10.6666667 L26.6666667,10.6666667 L26.6666667,8 C26.6666667,6.52724067 25.4727593,5.33333333 24,5.33333333 C22.5272407,5.33333333 21.3333333,6.52724067 21.3333333,8 L21.3333333,10.6666667 Z M29.3333333,48 C27.860574,48 26.6666667,46.8060927 26.6666667,45.3333333 L26.6666667,37.3333333 C26.6666667,35.860574 27.860574,34.6666667 29.3333333,34.6666667 L37.3333333,34.6666667 C41.0152317,34.6666667 44,37.651435 44,41.3333333 C44,45.0152317 41.0152317,48 37.3333333,48 L29.3333333,48 Z M26.6666667,18.6666667 C26.6666667,17.1939073 27.860574,16 29.3333333,16 L36,16 C39.6818983,16 42.6666667,18.9847683 42.6666667,22.6666667 C42.6666667,26.348565 39.6818983,29.3333333 36,29.3333333 L29.3333333,29.3333333 C27.860574,29.3333333 26.6666667,28.139426 26.6666667,26.6666667 L26.6666667,18.6666667 Z" id="Shape"></path>
                    </g>
                </g>
            </g>
        </g>
    </g>
</svg>