<?xml version="1.0" encoding="UTF-8"?>
<svg width="64px" height="64px" viewBox="0 0 64 64" version="1.1" xmlns="http://www.w3.org/2000/svg" xmlns:xlink="http://www.w3.org/1999/xlink">
    <!-- Generator: Sketch 52.2 (67145) - http://www.bohemiancoding.com/sketch -->
    <title>icon/lan_connect_rounded</title>
    <desc>Created with Sketch.</desc>
    <g id="Page-1" stroke="none" stroke-width="1" fill="none" fill-rule="evenodd">
        <g id="D-00.00-Home" transform="translate(-555.000000, -1384.000000)" fill="#004E85" fill-rule="nonzero">
            <g id="Section-3" transform="translate(0.000000, 1127.000000)">
                <g id="Element-/-Reasons" transform="translate(555.000000, 257.000000)">
                    <g id="icon/lan_connect">
                        <path d="M5.33333333,8 C5.33333333,5.04 7.70666667,2.66666667 10.6666667,2.66666667 L26.6666667,2.66666667 C29.6266667,2.66666667 32,5.04 32,8 L32,18.6666667 C32,21.6266667 29.6266667,24 26.6666667,24 L32,24 C33.4727593,24 34.6666667,25.1939073 34.6666667,26.6666667 C34.6666667,28.139426 33.4727593,29.3333333 32,29.3333333 L5.33333333,29.3333333 C3.860574,29.3333333 2.66666667,28.139426 2.66666667,26.6666667 C2.66666667,25.1939073 3.860574,24 5.33333333,24 L10.6666667,24 C7.70666667,24 5.33333333,21.6266667 5.33333333,18.6666667 L5.33333333,8 Z M10.6666667,8 L10.6666667,18.6666667 L26.6666667,18.6666667 L26.6666667,8 L10.6666667,8 Z M16,53.3333333 C11.581722,53.3333333 8,49.7516113 8,45.3333333 L8,37.3333333 C8,35.860574 9.19390733,34.6666667 10.6666667,34.6666667 C12.139426,34.6666667 13.3333333,35.860574 13.3333333,37.3333333 L13.3333333,45.3333333 C13.3333333,46.8060927 14.5272407,48 16,48 L24,48 C25.4727593,48 26.6666667,49.1939073 26.6666667,50.6666667 C26.6666667,52.139426 25.4727593,53.3333333 24,53.3333333 L16,53.3333333 Z M32,40 C32,37.04 34.3733333,34.6666667 37.3333333,34.6666667 L53.3333333,34.6666667 C56.2933333,34.6666667 58.6666667,37.04 58.6666667,40 L58.6666667,50.6666667 C58.6666667,53.6266667 56.2933333,56 53.3333333,56 L58.6666667,56 C60.139426,56 61.3333333,57.1939073 61.3333333,58.6666667 C61.3333333,60.139426 60.139426,61.3333333 58.6666667,61.3333333 L32,61.3333333 C30.5272407,61.3333333 29.3333333,60.139426 29.3333333,58.6666667 C29.3333333,57.1939073 30.5272407,56 32,56 L37.3333333,56 C34.3733333,56 32,53.6266667 32,50.6666667 L32,40 Z M37.3333333,40 L37.3333333,50.6666667 L53.3333333,50.6666667 L53.3333333,40 L37.3333333,40 Z" id="Shape"></path>
                    </g>
                </g>
            </g>
        </g>
    </g>
</svg>