<?xml version="1.0" encoding="UTF-8"?>
<svg width="72px" height="72px" viewBox="0 0 72 72" version="1.1" xmlns="http://www.w3.org/2000/svg" xmlns:xlink="http://www.w3.org/1999/xlink">
    <!-- Generator: Sketch 52.2 (67145) - http://www.bohemiancoding.com/sketch -->
    <title>icon/vector_rounded</title>
    <desc>Created with Sketch.</desc>
    <g id="Page-1" stroke="none" stroke-width="1" fill="none" fill-rule="evenodd">
        <g id="D-00.00-Home" transform="translate(-1039.000000, -2572.000000)" fill="#004E85" fill-rule="nonzero">
            <g id="Section-4" transform="translate(200.000000, 2011.000000)">
                <g id="Group-8" transform="translate(710.000000, 521.000000)">
                    <g id="icon/vector" transform="translate(129.000000, 40.000000)">
                        <path d="M67.032098,22.7722839 C65.4740476,24.3303343 62.9479488,24.3303343 61.3898984,22.7722839 C60.9573297,22.3397152 60.6376051,21.8319173 60.4495318,21.2676973 L46.5509133,21.2865046 L46.3440327,22.7722839 C52.8325622,24.5213658 59.0577892,27.9631075 64.2109982,33.1163165 L64.2657029,33.1744051 C65.2514977,34.2211768 65.2268925,35.8618886 64.210152,36.8786291 L64.1372728,36.9515083 C63.1384919,37.9502893 61.519148,37.9502893 60.520367,36.9515083 C60.4962664,36.9274077 60.4726499,36.9028276 60.4495318,36.877783 C55.5972401,32.0254913 49.6353158,28.8846668 43.4477035,27.5493462 C41.4724497,29.5246 38.7934307,30.634286 36,30.634286 C33.2065693,30.634286 30.5275503,29.5246 28.5522965,27.5493462 C22.3646842,28.8846668 16.4027599,32.0254913 11.5504682,36.877783 C10.5924047,37.9156852 8.97435471,37.9804072 7.93645251,37.0223436 C7.91140785,36.9992254 7.88682782,36.975609 7.86272716,36.9515083 L7.78984796,36.8786291 C6.77310745,35.8618886 6.74850231,34.2211768 7.73429709,33.1744051 L7.78900182,33.1163165 C12.9422108,27.9631075 19.1674378,24.5213658 25.6559673,22.7722839 L25.4490867,21.2865046 L11.5504682,21.2676973 C11.3623949,21.8319173 11.0426703,22.3397152 10.6101016,22.7722839 C9.05205123,24.3303343 6.52595241,24.3303343 4.967902,22.7722839 C3.40985159,21.2142335 3.40985159,18.6881346 4.967902,17.1300842 C6.52595241,15.5720338 9.05205123,15.5720338 10.6101016,17.1300842 C11.0426703,17.5626529 11.3623949,18.0704508 11.5504682,18.6346708 L25.4490867,18.6158635 C25.7123893,16.3589836 26.7467926,14.1585258 28.4770672,12.4282512 C32.6318682,8.27345012 39.3681318,8.27345012 43.5229328,12.4282512 C45.2532074,14.1585258 46.2876107,16.3589836 46.5509133,18.6158635 L60.4495318,18.6346708 C60.6376051,18.0704508 60.9573297,17.5626529 61.3898984,17.1300842 C62.9479488,15.5720338 65.4740476,15.5720338 67.032098,17.1300842 C68.5901484,18.6881346 68.5901484,21.2142335 67.032098,22.7722839 Z M39.7614664,16.1897176 C37.6840659,14.1123171 34.3159341,14.1123171 32.2385336,16.1897176 C30.161133,18.2671182 30.161133,21.6352499 32.2385336,23.7126505 C34.3159341,25.790051 37.6840659,25.790051 39.7614664,23.7126505 C41.838867,21.6352499 41.838867,18.2671182 39.7614664,16.1897176 Z M22.5458187,62.5991988 L34.6344503,36.0042094 C34.9772559,35.2500371 35.8665321,34.9165585 36.6207044,35.2593641 C36.9508663,35.4094376 37.2154761,35.6740475 37.3655497,36.0042094 L49.4541813,62.5991988 C49.7969868,63.353371 49.4635082,64.2426473 48.709336,64.5854529 C48.3368732,64.7547541 47.9114178,64.7645671 47.5315455,64.6126182 L36,60 L24.4684545,64.6126182 C23.6992792,64.9202883 22.8263235,64.5461645 22.5186534,63.7769892 C22.3667045,63.3971169 22.3765175,62.9716615 22.5458187,62.5991988 Z" id="Shape"></path>
                    </g>
                </g>
            </g>
        </g>
    </g>
</svg>