<?xml version="1.0" encoding="UTF-8"?>
<svg width="72px" height="72px" viewBox="0 0 72 72" version="1.1" xmlns="http://www.w3.org/2000/svg" xmlns:xlink="http://www.w3.org/1999/xlink">
    <!-- Generator: Sketch 52.2 (67145) - http://www.bohemiancoding.com/sketch -->
    <title>icon/frontcode_rounded</title>
    <desc>Created with Sketch.</desc>
    <g id="Page-1" stroke="none" stroke-width="1" fill="none" fill-rule="evenodd">
        <g id="D-00.00-Home" transform="translate(-329.000000, -2212.000000)" fill="#004E85" fill-rule="nonzero">
            <g id="Section-4" transform="translate(200.000000, 2011.000000)">
                <g id="Element/Card_Button" transform="translate(0.000000, 161.000000)">
                    <g id="icon/frontcode" transform="translate(129.000000, 40.000000)">
                        <path d="M63,9 L9,9 C5.7,9 3,11.7 3,15 L3,51 C3,54.3 5.7,57 9,57 L24,57 L24,60 C24,61.65 25.35,63 27,63 L45,63 C46.65,63 48,61.65 48,60 L48,57 L63,57 C66.3,57 69,54.3 69,51 L69,15 C69,11.67 66.3,9 63,9 Z M60,51 L12,51 C10.35,51 9,49.65 9,48 L9,18 C9,16.35 10.35,15 12,15 L60,15 C61.65,15 63,16.35 63,18 L63,48 C63,49.65 61.65,51 60,51 Z M26.4661597,39.2762584 C27.1779468,39.9038857 27.1779468,40.9016522 26.4661597,41.5292795 C25.7543726,42.1569068 24.6228137,42.1569068 23.9110266,41.5292795 L15.5338403,34.1264959 C14.8220532,33.4988686 14.8220532,32.4850091 15.5338403,31.8573817 L23.9110266,24.4706911 C24.2484021,24.1695136 24.708502,24 25.1885932,24 C25.6686843,24 26.1287842,24.1695136 26.4661597,24.4706911 C27.1779468,25.0983184 27.1779468,26.0960849 26.4661597,26.7237122 L19.348289,32.9999853 L26.4661597,39.2762584 Z M52.651699,33 L45.5338085,26.7237371 C45.1922446,26.4262525 45,26.0205542 45,25.5972284 C45,25.1739027 45.1922446,24.7682044 45.5338085,24.4707197 C46.2455975,23.8430934 47.3771596,23.8430934 48.0889486,24.4707197 L56.4661582,31.8573983 C57.1779473,32.4850246 57.1779473,33.4988824 56.4661582,34.1265087 L48.0889486,41.5292803 C47.3771596,42.1569066 46.2455975,42.1569066 45.5338085,41.5292803 C45.1922446,41.2317956 45,40.8260973 45,40.4027716 C45,39.9794458 45.1922446,39.5737475 45.5338085,39.2762629 L52.651699,33 Z M32.7481548,39.4155802 C32.7374479,39.4299822 32.7264838,39.4441911 32.7152676,39.4582001 C32.1969488,40.1055781 31.2519649,40.2102012 30.6045869,39.6918824 C29.9267821,39.1492026 29.8005719,38.1671775 30.3191249,37.4707413 L39.8896127,24.6172173 C39.8928284,24.6128985 39.8960669,24.6085966 39.899328,24.6043118 C40.4118146,23.9309613 41.3731255,23.8005553 42.046476,24.3130418 C42.7292014,24.8326635 42.8666822,25.8049065 42.354799,26.4934529 L32.7481548,39.4155802 Z" id="icon/av/remove_from_queue_24px"></path>
                    </g>
                </g>
            </g>
        </g>
    </g>
</svg>