<?xml version="1.0" encoding="UTF-8"?>
<svg width="24px" height="24px" viewBox="0 0 24 24" version="1.1" xmlns="http://www.w3.org/2000/svg" xmlns:xlink="http://www.w3.org/1999/xlink">
    <!-- Generator: Sketch 52.5 (67469) - http://www.bohemiancoding.com/sketch -->
    <title>icon/info_outline</title>
    <desc>Created with Sketch.</desc>
    <g id="Page-1" stroke="none" stroke-width="1" fill="none" fill-rule="evenodd">
        <g id="[Icon-Base]" transform="translate(-176.000000, -80.000000)">
            <g id="icon/info_outline" transform="translate(176.000000, 80.000000)">
                <rect id="boundary" x="0" y="0" width="24" height="24"></rect>
                <path d="M11,7 L13,7 L13,9 L11,9 L11,7 Z M12,17 C12.55,17 13,16.55 13,16 L13,12 C13,11.45 12.55,11 12,11 C11.45,11 11,11.45 11,12 L11,16 C11,16.55 11.45,17 12,17 Z M12,2 C6.48,2 2,6.48 2,12 C2,17.52 6.48,22 12,22 C17.52,22 22,17.52 22,12 C22,6.48 17.52,2 12,2 Z M12,20 C7.59,20 4,16.41 4,12 C4,7.59 7.59,4 12,4 C16.41,4 20,7.59 20,12 C20,16.41 16.41,20 12,20 Z" id="icon/action/info_outline_24px" fill="#004E85" fill-rule="nonzero"></path>
            </g>
        </g>
    </g>
</svg>