<?xml version="1.0" encoding="UTF-8"?>
<svg width="73px" height="72px" viewBox="0 0 73 72" version="1.1" xmlns="http://www.w3.org/2000/svg" xmlns:xlink="http://www.w3.org/1999/xlink">
    <!-- Generator: Sketch 52.2 (67145) - http://www.bohemiancoding.com/sketch -->
    <title>icon/mobiledev_rounded</title>
    <desc>Created with Sketch.</desc>
    <g id="Page-1" stroke="none" stroke-width="1" fill="none" fill-rule="evenodd">
        <g id="D-00.00-Home" transform="translate(-1039.000000, -2212.000000)" fill="#004E85" fill-rule="nonzero">
            <g id="Section-4" transform="translate(200.000000, 2011.000000)">
                <g id="Element/Card_Button" transform="translate(710.000000, 161.000000)">
                    <g id="icon/mobiledev" transform="translate(129.000000, 40.000000)">
                        <path d="M69.69118,65 C68.03118,67.48 66.27118,69.9 63.59118,69.94 C60.91118,70 60.05118,68.36 57.01118,68.36 C53.95118,68.36 53.01118,69.9 50.47118,70 C47.85118,70.1 45.87118,67.36 44.19118,64.94 C40.77118,60 38.15118,50.9 41.67118,44.78 C43.41118,41.74 46.53118,39.82 49.91118,39.76 C52.47118,39.72 54.91118,41.5 56.49118,41.5 C58.05118,41.5 61.01118,39.36 64.11118,39.68 C65.41118,39.74 69.05118,40.2 71.39118,43.64 C71.21118,43.76 67.05118,46.2 67.09118,51.26 C67.15118,57.3 72.39118,59.32 72.45118,59.34 C72.39118,59.48 71.61118,62.22 69.69118,65 Z M58.27118,33 C59.73118,31.34 62.15118,30.08 64.15118,30 C64.41118,32.34 63.47118,34.7 62.07118,36.38 C60.69118,38.08 58.41118,39.4 56.17118,39.22 C55.87118,36.92 56.99118,34.52 58.27118,33 Z" id="Shape"></path>
                        <path d="M27.06,6.32 C30,8.5 32,12 32,16 L8,16 C8,12 9.94,8.52 12.92,6.32 L10.3,3.7 C9.9,3.32 9.9,2.68 10.3,2.28 C10.68,1.9 11.32,1.9 11.7,2.28 L14.68,5.26 C16.28,4.46 18.08,4 20,4 C21.9,4 23.7,4.46 25.3,5.24 L28.26,2.28 C28.64,1.9 29.28,1.9 29.68,2.28 C30.06,2.68 30.06,3.32 29.68,3.7 L27.06,6.32 Z M26,12 L26,10 L24,10 L24,12 L26,12 Z M16,12 L16,10 L14,10 L14,12 L16,12 Z M37,18 C38.6568542,18 40,19.3431458 40,21 L40,35 C40,36.6568542 38.6568542,38 37,38 C35.3431458,38 34,36.6568542 34,35 L34,21 C34,19.3431458 35.3431458,18 37,18 Z M3,18 C4.65685425,18 6,19.3431458 6,21 L6,35 C6,36.6568542 4.65685425,38 3,38 C1.34314575,38 -4.4408921e-16,36.6568542 -4.4408921e-16,35 L-4.4408921e-16,21 C-4.4408921e-16,19.3431458 1.34314575,18 3,18 Z M8,38 L8,18 L32,18 L32,38 C32,39.1045695 31.1045695,40 30,40 L28,40 L28,47 C28,48.6568542 26.6568542,50 25,50 C23.3431458,50 22,48.6568542 22,47 L22,40 L18,40 L18,47 C18,48.6568542 16.6568542,50 15,50 C13.3431458,50 12,48.6568542 12,47 L12,40 L10,40 C8.8954305,40 8,39.1045695 8,38 Z" id="Combined-Shape"></path>
                    </g>
                </g>
            </g>
        </g>
    </g>
</svg>