<?xml version="1.0" encoding="UTF-8"?>
<svg width="64px" height="64px" viewBox="0 0 64 64" version="1.1" xmlns="http://www.w3.org/2000/svg" xmlns:xlink="http://www.w3.org/1999/xlink">
    <!-- Generator: Sketch 52.2 (67145) - http://www.bohemiancoding.com/sketch -->
    <title>icon/people_outline_rounded</title>
    <desc>Created with Sketch.</desc>
    <g id="Page-1" stroke="none" stroke-width="1" fill="none" fill-rule="evenodd">
        <g id="D-00.00-Home" transform="translate(-200.000000, -1384.000000)" fill="#004E85" fill-rule="nonzero">
            <g id="Section-3" transform="translate(0.000000, 1127.000000)">
                <g id="Element-/-Reasons" transform="translate(200.000000, 257.000000)">
                    <g id="icon/people_outline">
                        <path d="M24,32 C29.1466667,32 33.3333333,27.8133333 33.3333333,22.6666667 C33.3333333,17.52 29.1466667,13.3333333 24,13.3333333 C18.8533333,13.3333333 14.6666667,17.52 14.6666667,22.6666667 C14.6666667,27.8133333 18.8533333,32 24,32 Z M24,18.6666667 C26.2133333,18.6666667 28,20.4533333 28,22.6666667 C28,24.88 26.2133333,26.6666667 24,26.6666667 C21.7866667,26.6666667 20,24.88 20,22.6666667 C20,20.4533333 21.7866667,18.6666667 24,18.6666667 Z M24,36.6666667 C17.76,36.6666667 5.33333333,39.7866667 5.33333333,46 L5.33333333,48 C5.33333333,49.4666667 6.53333333,50.6666667 8,50.6666667 L40,50.6666667 C41.4666667,50.6666667 42.6666667,49.4666667 42.6666667,48 L42.6666667,46 C42.6666667,39.7866667 30.24,36.6666667 24,36.6666667 Z M11.5733333,45.3333333 C13.8133333,43.7866667 19.2266667,42 24,42 C28.7733333,42 34.1866667,43.7866667 36.4266667,45.3333333 L11.5733333,45.3333333 Z M42.7733333,36.8266667 C45.8666667,39.0666667 48,42.0533333 48,46 L48,50.6666667 L56,50.6666667 C57.4666667,50.6666667 58.6666667,49.4666667 58.6666667,48 L58.6666667,46 C58.6666667,40.6133333 49.3333333,37.5466667 42.7733333,36.8266667 Z M40,32 C45.1466667,32 49.3333333,27.8133333 49.3333333,22.6666667 C49.3333333,17.52 45.1466667,13.3333333 40,13.3333333 C38.56,13.3333333 37.2266667,13.68 36,14.2666667 C37.68,16.64 38.6666667,19.5466667 38.6666667,22.6666667 C38.6666667,25.7866667 37.68,28.6933333 36,31.0666667 C37.2266667,31.6533333 38.56,32 40,32 Z" id="icon/social/people_outline_24px"></path>
                    </g>
                </g>
            </g>
        </g>
    </g>
</svg>