<?xml version="1.0" encoding="UTF-8"?>
<svg width="64px" height="64px" viewBox="0 0 64 64" version="1.1" xmlns="http://www.w3.org/2000/svg" xmlns:xlink="http://www.w3.org/1999/xlink">
    <!-- Generator: Sketch 52.2 (67145) - http://www.bohemiancoding.com/sketch -->
    <title>icon/question_rounded</title>
    <desc>Created with Sketch.</desc>
    <g id="Page-1" stroke="none" stroke-width="1" fill="none" fill-rule="evenodd">
        <g id="D-00.00-Home" transform="translate(-910.000000, -1384.000000)" fill="#004E85" fill-rule="nonzero">
            <g id="Section-3" transform="translate(0.000000, 1127.000000)">
                <g id="Element-/-Reasons" transform="translate(910.000000, 257.000000)">
                    <g id="icon/question">
                        <path d="M10.6666667,5.33333333 L53.3333333,5.33333333 C56.278852,5.33333333 58.6666667,7.721148 58.6666667,10.6666667 L58.6666667,42.6666667 C58.6666667,45.6121853 56.278852,48 53.3333333,48 L37.0666667,48 L27.2,57.8933333 C26.6666667,58.4 26,58.6666667 25.3333333,58.6666667 L24,58.6666667 C22.5272407,58.6666667 21.3333333,57.4727593 21.3333333,56 L21.3333333,48 L10.6666667,48 C7.721148,48 5.33333333,45.6121853 5.33333333,42.6666667 L5.33333333,10.6666667 C5.33333333,7.70666667 7.73333333,5.33333333 10.6666667,5.33333333 Z M32.5066667,14.6666667 C30.1333333,14.6666667 28.24,15.1466667 26.8,16.1066667 C25.3333333,17.0666667 24.5866667,18.6666667 24.72,20.5066667 L29.9733333,20.5066667 C29.9733333,19.76 30.24,19.2 30.6666667,18.8266667 C31.2,18.4533333 31.7866667,18.2666667 32.5066667,18.2666667 C33.3333333,18.2666667 34.0533333,18.48 34.5333333,18.96 C35.0133333,19.4133333 35.2533333,20 35.2533333,20.8 C35.2533333,21.5466667 35.04,22.2133333 34.6666667,22.7733333 C34.2133333,23.36 33.6533333,23.84 32.96,24.2133333 C31.5733333,25.0666667 30.6666667,25.8133333 30.1066667,26.4533333 C29.6,27.0933333 29.3333333,28 29.3333333,29.3333333 L34.6666667,29.3333333 C34.6666667,28.5866667 34.8,28 35.04,27.52 C35.28,27.0666667 35.7333333,26.6666667 36.4266667,26.2666667 C37.6533333,25.7066667 38.6666667,24.96 39.44,24 C40.2133333,23.0133333 40.6133333,21.9733333 40.6133333,20.8 C40.6133333,18.9333333 39.8933333,17.44 38.4533333,16.32 C37.0133333,15.2266667 35.0133333,14.6666667 32.5066667,14.6666667 Z M29.3333333,32 L29.3333333,37.3333333 L34.6666667,37.3333333 L34.6666667,32 L29.3333333,32 Z" id="Shape"></path>
                    </g>
                </g>
            </g>
        </g>
    </g>
</svg>