<?xml version="1.0" encoding="UTF-8"?>
<svg width="64px" height="64px" viewBox="0 0 64 64" version="1.1" xmlns="http://www.w3.org/2000/svg" xmlns:xlink="http://www.w3.org/1999/xlink">
    <!-- Generator: Sketch 52.2 (67145) - http://www.bohemiancoding.com/sketch -->
    <title>icon/refund_rounded</title>
    <desc>Created with Sketch.</desc>
    <g id="Page-1" stroke="none" stroke-width="1" fill="none" fill-rule="evenodd">
        <g id="D-00.00-Home" transform="translate(-732.000000, -1615.000000)" fill="#004E85" fill-rule="nonzero">
            <g id="Section-3" transform="translate(0.000000, 1127.000000)">
                <g id="Element-/-Reasons" transform="translate(732.000000, 488.000000)">
                    <g id="icon/refund">
                        <path d="M35.744059,8.00465352 C48.2507257,8.35132019 58.704059,18.8046535 59.0507257,31.3113202 C59.424059,44.8846535 48.5173924,56.0046535 35.0507257,56.0046535 C29.4773924,56.0046535 24.384059,54.1113202 20.3307257,50.9113202 C19.0773924,49.9513202 18.9973924,48.0579869 20.1173924,46.9379869 C21.0773924,45.9779869 22.5707257,45.8979869 23.6373924,46.7246535 C26.784059,49.2046535 30.7573924,50.6713202 35.0507257,50.6713202 C45.4507257,50.6713202 53.8507257,42.1646535 53.7173924,31.7379869 C53.584059,21.8179869 45.2373924,13.4713202 35.3173924,13.3379869 C24.864059,13.2046535 16.384059,21.6046535 16.384059,32.0046535 L21.1573924,32.0046535 C22.3573924,32.0046535 22.944059,33.4446535 22.1173924,34.2713202 L14.6773924,41.7379869 C14.144059,42.2713202 13.3173924,42.2713202 12.784059,41.7379869 L5.34405903,34.2713202 C4.4907257,33.4446535 5.07739236,32.0046535 6.27739236,32.0046535 L11.0507257,32.0046535 C11.0507257,18.5379869 22.1707257,7.63132019 35.744059,8.00465352 Z M35.0666667,30.5333333 C38.0933333,31.32 41.3333333,32.6133333 41.3333333,36.4 C41.3333333,39.1333333 39.2666667,40.64 36.6666667,41.1333333 L36.6666667,42 C36.6666667,43.1066667 35.7733333,44 34.6666667,44 C33.56,44 32.6666667,43.1066667 32.6666667,42 L32.6666667,41.1066667 C30.6666667,40.68 28.8933333,39.5866667 28.1333333,37.7333333 C27.8,36.9066667 28.4266667,36 29.32,36 L29.6933333,36 C30.24,36 30.6933333,36.3733333 30.8933333,36.8933333 C31.3333333,38.0133333 32.4666667,38.8 34.6666667,38.8 C37.6133333,38.8 38.2666667,37.3333333 38.2666667,36.4133333 C38.2666667,35.1733333 37.6,34 34.2666667,33.2 C30.5466667,32.3066667 28,30.7733333 28,27.6933333 C28,25.12 30.08,23.44 32.6666667,22.88 L32.6666667,22 C32.6666667,20.8933333 33.56,20 34.6666667,20 C35.7733333,20 36.6666667,20.8933333 36.6666667,22 L36.6666667,22.92 C38.7466667,23.4266667 40.0533333,24.7333333 40.6133333,26.3066667 C40.92,27.1333333 40.2933333,28 39.4133333,28 L39.0133333,28 C38.4533333,28 38.0133333,27.6 37.8533333,27.0666667 C37.5066667,25.92 36.56,25.2 34.6666667,25.2 C32.4133333,25.2 31.0666667,26.2133333 31.0666667,27.6666667 C31.0666667,28.9333333 32.04,29.7466667 35.0666667,30.5333333 Z" id="icon/action/history_24px"></path>
                    </g>
                </g>
            </g>
        </g>
    </g>
</svg>