<?xml version="1.0" encoding="UTF-8"?>
<svg width="24px" height="24px" viewBox="0 0 24 24" version="1.1" xmlns="http://www.w3.org/2000/svg" xmlns:xlink="http://www.w3.org/1999/xlink">
    <!-- Generator: Sketch 52.2 (67145) - http://www.bohemiancoding.com/sketch -->
    <title>icon/twitter</title>
    <desc>Created with Sketch.</desc>
    <defs>
        <rect id="path-1" x="0" y="0" width="24" height="24"></rect>
    </defs>
    <g id="Page-1" stroke="none" stroke-width="1" fill="none" fill-rule="evenodd" opacity="0.68233817">
        <g id="D-00.00-Home" transform="translate(-1348.000000, -4948.000000)">
            <g id="Element/Footer" transform="translate(0.000000, 4936.000000)">
                <g id="Group-19">
                    <g id="icon/twitter" transform="translate(1348.000000, 12.000000)">
                        <mask id="mask-2" fill="white">
                            <use xlink:href="#path-1"></use>
                        </mask>
                        <g id="Background"></g>
                        <path d="M22.5,5.88235294 C21.7638623,6.21176471 20.9703633,6.42823529 20.1481836,6.53176471 C20.9894837,6.03294118 21.6395793,5.24235294 21.9455067,4.29176471 C21.1520076,4.76235294 20.2724665,5.09176471 19.3451243,5.28 C18.5898662,4.47058824 17.5286807,4 16.3240918,4 C14.0774379,4 12.2418738,5.80705882 12.2418738,8.03764706 C12.2418738,8.35764706 12.2801147,8.66823529 12.3470363,8.96 C8.94359465,8.79058824 5.91300191,7.18117647 3.8957935,4.74352941 C3.54206501,5.33647059 3.34130019,6.03294118 3.34130019,6.76705882 C3.34130019,8.16941176 4.0583174,9.41176471 5.16730402,10.1176471 C4.48852772,10.1176471 3.85755258,9.92941176 3.30305927,9.64705882 C3.30305927,9.64705882 3.30305927,9.64705882 3.30305927,9.67529412 C3.30305927,11.6329412 4.71797323,13.2705882 6.5917782,13.6376471 C6.24760994,13.7317647 5.88432122,13.7788235 5.51147228,13.7788235 C5.25334608,13.7788235 4.99521989,13.7505882 4.74665392,13.7035294 C5.26290631,15.2941176 6.76386233,16.48 8.5707457,16.5082353 C7.1749522,17.6 5.40630975,18.24 3.4751434,18.24 C3.1500956,18.24 2.8250478,18.2211765 2.5,18.1835294 C4.31644359,19.3317647 6.47705545,20 8.79063098,20 C16.3240918,20 20.4636711,13.8447059 20.4636711,8.50823529 C20.4636711,8.32941176 20.4636711,8.16 20.4541109,7.98117647 C21.2571702,7.41647059 21.9455067,6.70117647 22.5,5.88235294 Z" id="Path" fill="#757575" mask="url(#mask-2)"></path>
                    </g>
                </g>
            </g>
        </g>
    </g>
</svg>