<?xml version="1.0" encoding="UTF-8"?>
<svg width="72px" height="72px" viewBox="0 0 72 72" version="1.1" xmlns="http://www.w3.org/2000/svg" xmlns:xlink="http://www.w3.org/1999/xlink">
    <!-- Generator: Sketch 52.2 (67145) - http://www.bohemiancoding.com/sketch -->
    <title>icon/uiux_rounded</title>
    <desc>Created with Sketch.</desc>
    <g id="Page-1" stroke="none" stroke-width="1" fill="none" fill-rule="evenodd">
        <g id="D-00.00-Home" transform="translate(-684.000000, -2572.000000)" fill-rule="nonzero">
            <g id="Section-4" transform="translate(200.000000, 2011.000000)">
                <g id="Element/Card_Button" transform="translate(355.000000, 521.000000)">
                    <g id="icon/uiux" transform="translate(129.000000, 40.000000)">
                        <path d="M47.25,5.09099724 L6.75,5.09099724 C4.275,5.09099724 2.25,7.11599724 2.25,9.59099724 L2.25,36.5909972 C2.25,39.0659972 4.275,41.0909972 6.75,41.0909972 L18,41.0909972 L18,43.3409972 C18,44.5784972 19.0125,45.5909972 20.25,45.5909972 L33.75,45.5909972 C34.9875,45.5909972 36,44.5784972 36,43.3409972 L36,41.0909972 L47.25,41.0909972 C49.725,41.0909972 51.75,39.0659972 51.75,36.5909972 L51.75,9.59099724 C51.75,7.09349724 49.725,5.09099724 47.25,5.09099724 Z M45,36.5909972 L9,36.5909972 C7.7625,36.5909972 6.75,35.5784972 6.75,34.3409972 L6.75,11.8409972 C6.75,10.6034972 7.7625,9.59099724 9,9.59099724 L45,9.59099724 C46.2375,9.59099724 47.25,10.6034972 47.25,11.8409972 L47.25,34.3409972 C47.25,35.5784972 46.2375,36.5909972 45,36.5909972 Z" id="icon/av/remove_from_queue_24px" fill="#004E85"></path>
                        <rect id="Rectangle" fill="#FFFFFF" x="38.25" y="21.9473132" width="27" height="42.75"></rect>
                        <path d="M61.6944031,25.3409972 L46.9671304,25.3409972 C43.9112213,25.3409972 41.4444031,27.8078154 41.4444031,30.8637245 L41.4444031,60.31827 C41.4444031,63.3741791 43.9112213,65.8409972 46.9671304,65.8409972 L61.6944031,65.8409972 C64.7503122,65.8409972 67.2171304,63.3741791 67.2171304,60.31827 L67.2171304,30.8637245 C67.2171304,27.8078154 64.7503122,25.3409972 61.6944031,25.3409972 Z M57.0921304,62.1591791 L51.5694031,62.1591791 C51.0539485,62.1591791 50.6489485,61.7541791 50.6489485,61.2387245 C50.6489485,60.72327 51.0539485,60.31827 51.5694031,60.31827 L57.0921304,60.31827 C57.6075849,60.31827 58.0125849,60.72327 58.0125849,61.2387245 C58.0125849,61.7541791 57.6075849,62.1591791 57.0921304,62.1591791 Z M63.5353122,56.6364518 L45.1262213,56.6364518 L45.1262213,30.8637245 L63.5353122,30.8637245 L63.5353122,56.6364518 Z" id="icon/hardware/phone_android_24px" fill="#004E85"></path>
                        <path d="M16.9092265,70.4091724 L25.9757001,50.4629304 C26.2328043,49.8973012 26.8997615,49.6471922 27.4653907,49.9042964 C27.7130121,50.0168516 27.9114695,50.215309 28.0240247,50.4629304 L37.0904983,70.4091724 C37.3476025,70.9748016 37.0974936,71.6417588 36.5318644,71.898863 C36.2525173,72.025839 35.9334257,72.0331987 35.6485215,71.919237 L26.9998624,68.4597734 L18.3512033,71.919237 C17.7743218,72.1499896 17.1196051,71.8693967 16.8888525,71.2925153 C16.7748908,71.0076111 16.7822505,70.6885195 16.9092265,70.4091724 Z" id="Path" fill="#004E85"></path>
                    </g>
                </g>
            </g>
        </g>
    </g>
</svg>